<svg xmlns="http://www.w3.org/2000/svg" viewBox="0 0 24 24" fill="#8a8c92">
  <path d="M12 2C6.48 2 2 6.58 2 12.23c0 4.52 2.87 8.35 6.84 9.7.5.1.68-.22.68-.49 0-.24-.01-1.04-.01-1.89-2.78.62-3.37-1.2-3.37-1.2-.46-1.19-1.11-1.5-1.11-1.5-.91-.64.07-.63.07-.63 1 .08 1.53 1.06 1.53 1.06.9 1.56 2.35 1.11 2.92.85.09-.67.35-1.12.64-1.38-2.22-.26-4.56-1.14-4.56-5.07 0-1.12.39-2.03 1.04-2.75-.1-.26-.45-1.31.1-2.73 0 0 .85-.28 2.75 1.05A9.36 9.36 0 0 1 12 6.91c.85 0 1.71.12 2.51.35 1.9-1.33 2.74-1.05 2.74-1.05.55 1.42.2 2.47.1 2.73.65.72 1.04 1.63 1.04 2.75 0 3.94-2.35 4.81-4.59 5.06.36.32.68.92.68 1.85 0 1.34-.01 2.41-.01 2.74 0 .27.18.6.69.49A10.23 10.23 0 0 0 22 12.23C22 6.58 17.52 2 12 2Z" />
</svg>
